<svg width="485" height="485" viewBox="0 0 485 485" fill="none" xmlns="http://www.w3.org/2000/svg">
<rect width="485" height="485" fill="black"/>
<g clip-path="url(#clip0_18:8)">
<path d="M78.3646 347.739C65.8407 347.242 55.5943 343.815 47.5825 337.45C46.0535 336.234 42.41 332.588 41.1877 331.051C37.9388 326.965 35.7299 322.99 34.2566 318.578C29.7232 304.999 32.0564 287.181 40.9303 267.625C48.5283 250.883 60.2522 234.278 80.7063 211.281C83.7193 207.897 92.6919 198 92.7498 198C92.7714 198 92.2823 198.847 91.6668 199.879C86.3485 208.787 81.7979 219.28 79.3188 228.364C75.3365 242.94 75.8169 255.449 80.7256 265.148C84.1118 271.831 89.9169 277.618 96.4448 280.818C107.873 286.417 124.604 286.881 145.037 282.173C146.444 281.847 216.152 263.343 299.946 241.051C383.74 218.757 452.31 200.53 452.321 200.546C452.345 200.565 257.644 283.878 156.572 327.1C140.565 333.944 136.285 335.672 128.76 338.314C109.524 345.069 92.293 348.292 78.3646 347.739Z" fill="white"/>
</g>
<path d="M133.338 218.463C145.123 220.912 158.757 203.26 163.791 179.036C168.826 154.812 163.353 133.189 151.569 130.74C139.784 128.291 126.15 145.943 121.115 170.167C116.081 194.391 121.553 216.013 133.338 218.463Z" fill="white"/>
<path d="M223.431 237.186C235.216 239.635 248.85 221.983 253.885 197.759C258.919 173.535 253.447 151.913 241.662 149.464C229.877 147.014 216.243 164.666 211.209 188.89C206.174 213.114 211.647 234.737 223.431 237.186Z" fill="white"/>
<defs>
<clipPath id="clip0_18:8">
<rect width="421" height="150" fill="white" transform="translate(32 198)"/>
</clipPath>
</defs>
</svg>
